<svg xmlns="http://www.w3.org/2000/svg" viewBox="0 0 512 512">
  <!-- Background -->
  <rect width="512" height="512" rx="50" fill="#4facfe" />
  
  <!-- Sun -->
  <circle cx="180" cy="180" r="70" fill="#ffdd00" />
  
  <!-- Cloud -->
  <path d="M370 220c-27.6 0-50 22.4-50 50h-30c0-44.2 35.8-80 80-80s80 35.8 80 80-35.8 80-80 80H150c-38.7 0-70-31.3-70-70s31.3-70 70-70c3.3 0 6.6 0.2 9.8 0.7 15.8-38.2 53.5-65.2 97.7-65.2 58.3 0 105.5 47.2 105.5 105.5 0 6.8-0.6 13.5-1.9 20" fill="#ffffff" />
  
  <!-- Sticky Note -->
  <rect x="130" y="320" width="120" height="120" rx="10" fill="#ffd6a5" />
  <line x1="150" y1="350" x2="230" y2="350" stroke="#000" stroke-width="5" stroke-opacity="0.3" />
  <line x1="150" y1="380" x2="230" y2="380" stroke="#000" stroke-width="5" stroke-opacity="0.3" />
  <line x1="150" y1="410" x2="200" y2="410" stroke="#000" stroke-width="5" stroke-opacity="0.3" />
  
  <!-- Weather Card -->
  <rect x="280" y="320" width="120" height="120" rx="10" fill="#ffffff" />
  <circle cx="310" cy="350" r="15" fill="#ffdd00" />
  <line x1="340" y1="350" x2="380" y2="350" stroke="#000" stroke-width="5" stroke-opacity="0.3" />
  <line x1="300" y1="380" x2="380" y2="380" stroke="#000" stroke-width="5" stroke-opacity="0.3" />
  <line x1="300" y1="400" x2="380" y2="400" stroke="#000" stroke-width="5" stroke-opacity="0.3" />
  <line x1="300" y1="420" x2="350" y2="420" stroke="#000" stroke-width="5" stroke-opacity="0.3" />
</svg>
